<svg width="75" height="75" viewBox="0 0 75 75" fill="none" xmlns="http://www.w3.org/2000/svg">
<g clip-path="url(#clip0_62_150)">
<path d="M24.622 39.7654C24.6135 44.8916 27.3756 49.4726 30.6205 53.197C30.6639 53.4191 30.3571 53.3735 30.198 53.3342C29.524 53.1679 26.3756 49.8878 25.7709 49.1451C24.0004 46.9682 22.7048 44.4547 21.4645 41.9452C17.1648 40.9826 13.0502 39.5103 8.99533 37.7959L5.76001 36.016C11.8059 38.186 18.1993 39.3747 24.622 39.7654Z" fill="#26A58F"/>
<path d="M26.6183 52.4736C24.0344 50.9489 21.4534 49.4196 19.1865 47.4238C18.1594 46.5193 14.9534 43.4346 14.3454 42.4356C14.1576 42.1268 13.9697 41.8985 14.0493 41.4998L20.0427 43.0928C20.9311 45.4349 22.3248 47.4267 23.7693 49.435L26.6183 52.4736Z" fill="#26A58F"/>
<path d="M35.7657 35.1167C35.0871 37.1432 32.3893 37.3534 31.7593 39.4437L31.3493 39.4346C30.6076 38.2755 27.6215 37.1347 27.062 36.2558C26.2532 34.9851 26.3231 32.5394 26.3378 31.071C27.8838 31.4777 27.2888 32.3731 27.5527 33.4501C27.8782 34.7772 28.3356 36.147 29.7006 36.7701C32.0413 37.8392 35.5023 34.8792 35.7657 35.1167Z" fill="#26A58F"/>
<path d="M11.093 41.0192C11.4574 41.3791 11.7547 42.1537 12.1873 42.6572C12.775 43.3424 14.1529 43.8294 13.6211 44.6735C10.1077 42.8771 6.5046 40.9092 3.7583 38.0375L11.093 41.0192Z" fill="#26A58F"/>
<path d="M18.6185 49.2937C18.1459 49.3529 18.0962 49.4976 17.6185 49.3262C15.7639 48.6615 13.9286 47.757 12.0554 47.1214L7.47485 44.6791L14.6832 45.9099L18.6191 49.2937H18.6185Z" fill="#26A58F"/>
<path d="M21.6602 51.4239C21.8594 51.5515 22.0393 52.0157 22.3895 52.2651C22.8757 52.6114 23.631 52.5869 23.7613 53.0483L20.2755 52.6769L12.0474 49.5887C15.1349 50.8515 18.9698 49.7044 21.6602 51.4239Z" fill="#26A58F"/>
<path d="M31.7621 45.7984L29.6356 44.0806C29.8556 42.5063 29.9594 41.0499 28.9075 39.7371C31.9301 40.1483 30.9882 43.5395 31.7626 45.7984H31.7621Z" fill="#26A58F"/>
<path d="M34.337 33.9616C31.8907 36.7064 28.5432 36.2313 28.9098 31.9374C30.2054 32.3355 29.9155 34.4566 31.1158 34.7812C32.5027 35.156 32.9026 33.2599 34.3364 33.9622L34.337 33.9616Z" fill="#26A58F"/>
<path d="M37.495 19.8107C33.8829 19.8551 29.5083 19.5595 26.3378 21.4004L26.7671 21.8344C29.9093 20.0374 37.2305 20.5956 37.4651 20.4429C37.8216 21.5222 36.6174 20.9299 36.6044 21.6817L37.5097 23.2782C34.9648 22.8881 30.3431 23.1085 27.9797 24.1605C27.6667 24.3 27.8506 24.9214 27.3396 24.7158L22.332 12.7361C22.966 12.8027 23.2283 13.5164 23.9666 13.6833C24.6457 13.8371 25.3649 13.7146 26.0502 13.7471C25.9735 14.6242 24.6525 14.7905 24.8961 15.6084C24.9407 15.7577 27.1681 17.3627 27.4055 17.4271C29.7666 18.069 30.4891 16.0407 30.3397 14.033C31.4209 15.0172 33.8485 18.7114 35.3218 16.6149C35.6072 16.2082 36.9304 12.8831 36.931 12.4405C36.9333 11.4164 34.7769 12.084 35.1966 11.2928L36.2942 10.3792L37.4956 7.97168L38.7258 10.3906L39.8234 11.3042C40.2436 12.0959 38.0867 11.4278 38.089 12.4519C38.0901 12.8944 39.4128 16.2196 39.6982 16.6262C41.1714 18.7228 43.5991 15.0286 44.6803 14.0444C44.5308 16.0521 45.2534 18.0804 47.6144 17.4385C47.8519 17.3741 50.0793 15.769 50.1238 15.6198C50.3675 14.8019 49.0465 14.6356 48.9698 13.7585C49.6551 13.726 50.3743 13.8485 51.0534 13.6947C51.7917 13.5278 52.054 12.8141 52.6879 12.7475L47.6804 24.7272C47.1694 24.9328 47.3533 24.3114 47.0402 24.1719C44.6769 23.1199 40.0552 22.8881 37.5103 23.2782L38.4155 21.6931C38.4026 20.9413 37.1098 21.5222 37.4663 20.4429C37.6383 20.5921 45.1112 20.0493 48.2529 21.8458L48.6821 21.4117C45.5111 19.5709 41.1077 19.8557 37.4956 19.8107H37.495ZM45.5303 23.1501C46.6488 23.9412 47.6178 22.2131 46.5089 21.868C45.4485 21.5376 44.783 22.6221 45.5303 23.1501ZM28.339 23.1387C29.4575 23.9298 30.4265 22.2017 29.3176 21.8566C28.2572 21.5262 27.5917 22.6107 28.339 23.1387Z" fill="#26A58F"/>
<path d="M50.3975 39.7768C50.4059 44.9029 47.6438 49.4839 44.3989 53.2083C44.3555 53.4305 44.6623 53.3849 44.8214 53.3456C45.4954 53.1793 48.6439 49.8991 49.2485 49.1564C51.019 46.9795 52.3146 44.466 53.555 41.9565C57.8546 40.994 61.9693 39.5216 66.0241 37.8072L69.2594 36.0273C63.2135 38.1974 56.8202 39.3861 50.3975 39.7768Z" fill="#26A58F"/>
<path d="M37.5237 33.6786C38.6574 33.8244 46.0649 31.0722 46.1337 30.6149L45.5026 25.7775C44.8528 24.9676 43.1415 24.7329 42.2334 25.2871C40.6615 26.2463 40.2768 30.3107 37.5096 29.3436C34.7425 30.3107 34.3578 26.2349 32.7858 25.2757C31.8772 24.7216 30.1659 24.9562 29.5167 25.7661L28.8855 30.6035C28.9549 31.0603 36.3906 33.8238 37.5243 33.678L37.5237 33.6786Z" fill="#26A58F"/>
<path d="M48.4014 52.4851C50.9852 50.9603 53.5663 49.4311 55.8331 47.4353C56.8602 46.5308 60.0662 43.446 60.6742 42.447C60.8621 42.1383 61.0499 41.9099 60.9704 41.5112L54.9769 43.1043C54.0886 45.4464 52.6948 47.4381 51.2503 49.4464L48.4014 52.4851Z" fill="#26A58F"/>
<path d="M37.5098 38.5859L38.6801 38.8781C38.6649 37.9115 37.7692 37.285 37.5526 36.4101C37.494 36.1743 37.3248 35.0545 37.8217 35.1263C37.9678 37.0167 39.7354 37.6159 40.819 38.5967C42.9115 40.4899 43.29 40.6585 41.1094 42.9208L40.5353 40.6135C39.2143 41.4229 39.6497 42.8371 37.5098 42.3405C35.3698 42.8371 35.8052 41.4115 34.4843 40.6021L33.9101 42.9094C31.7295 40.6471 32.108 40.4785 34.2006 38.5853C35.2846 37.6045 37.0518 37.0059 37.1978 35.1149C37.6948 35.0426 37.5256 36.1624 37.4669 36.3987C37.2497 37.273 36.354 37.9001 36.3394 38.8667L37.5098 38.5853V38.5859Z" fill="#26A58F"/>
<path d="M39.2532 35.128C39.9317 37.1546 42.6295 37.3647 43.2595 39.455L43.6696 39.4459C44.4113 38.2868 47.3973 37.146 47.9568 36.2672C48.7657 34.9965 48.6957 32.5507 48.6811 31.0824C47.135 31.4891 47.7301 32.3844 47.4661 33.4615C47.1407 34.7886 46.6832 36.1584 45.3183 36.7815C42.9775 37.8506 39.5166 34.8905 39.2532 35.128Z" fill="#26A58F"/>
<path d="M63.9263 41.0299C63.5619 41.3899 63.2647 42.1645 62.8321 42.668C62.2444 43.3532 60.8664 43.8401 61.3983 44.6842C64.9117 42.8878 68.5148 40.92 71.2611 38.0482L63.9263 41.0299Z" fill="#26A58F"/>
<path d="M56.4005 49.3052C56.8731 49.3644 56.9228 49.5091 57.4005 49.3376C59.2551 48.673 61.0904 47.7685 62.9636 47.1329L67.5441 44.6906L60.3358 45.9214L56.3999 49.3052H56.4005Z" fill="#26A58F"/>
<path d="M37.5097 49.2698C39.3344 49.2698 40.6396 49.2726 42.1157 44.5151L40.2504 46.1144C38.9339 45.3745 39.7208 44.5037 37.5103 44.613C35.2389 44.5367 36.085 45.3631 34.7691 46.103L32.9038 44.5037C34.438 49.2732 35.6856 49.2698 37.5097 49.2698Z" fill="#26A58F"/>
<path d="M53.3586 51.4348C53.1595 51.5623 52.9796 52.0265 52.6293 52.276C52.1431 52.6223 51.3879 52.5978 51.2576 53.0592L54.7433 52.6878L62.9715 49.5996C59.8839 50.8623 56.0491 49.7152 53.3586 51.4348Z" fill="#26A58F"/>
<path d="M37.5098 23.5692C34.376 23.7264 30.7611 23.4821 27.955 24.9817L26.4614 29.6374L27.7632 30.2024C27.7328 29.2848 28.0639 25.4585 28.6792 25.0638C31.4227 24.3558 34.7562 24.4782 37.5448 24.1468C40.3334 24.4782 43.5974 24.3672 46.3415 25.0751C46.9568 25.4699 47.2879 29.2962 47.2575 30.2138L48.5593 29.6488L47.0657 24.9931C44.259 23.4935 40.6752 23.7321 37.5408 23.5749L37.5103 23.5692H37.5098Z" fill="#26A58F"/>
<path d="M37.5096 25.2997L38.6862 25.7416L37.5096 28.7643C39.5796 29.0867 40.0884 26.3482 41.2531 25.0206L37.5096 24.4351L33.7661 25.0092C34.9308 26.3363 35.439 29.0867 37.5096 28.7643L36.333 25.7303L37.5096 25.2997Z" fill="#26A58F"/>
<path d="M43.2567 45.8097L45.3831 44.0919C45.1631 42.5176 45.0593 41.0613 46.1113 39.7484C43.0886 40.1596 44.0305 43.5508 43.2561 45.8097H43.2567Z" fill="#26A58F"/>
<path d="M40.6819 33.973C43.1281 36.7177 46.4757 36.2427 46.109 31.9487C44.8135 32.3469 45.1034 34.4679 43.9031 34.7926C42.5161 35.1674 42.1162 33.2713 40.6824 33.9735L40.6819 33.973Z" fill="#26A58F"/>
<path d="M26.93 57.2631L28.6683 55.9673L29.4552 56.501L27.7715 59.0316L27.2289 58.6637L28.5363 56.6987L28.4839 56.8251L26.8324 57.9853L26.305 57.6276L26.7213 55.6797L26.8403 55.5481L25.5328 57.5132L24.9902 57.1452L26.6739 54.6146L27.4607 55.1483L26.9294 57.2637L26.93 57.2631Z" fill="#26A58F"/>
<path d="M28.5481 59.4223L30.9684 57.078L31.3965 57.2386L31.7135 60.6099L30.9876 60.3376L30.8494 58.0645L29.2746 59.6946L28.5487 59.4223H28.5481ZM29.3738 59.211L29.5645 58.6922L31.4472 59.399L31.2566 59.9179L29.3738 59.2116V59.211Z" fill="#26A58F"/>
<path d="M32.3357 58.1756L32.4406 57.6322L35.188 58.1744L35.0831 58.7178L32.3357 58.1756ZM32.8828 60.8258L33.4141 58.0787L34.1203 58.2183L33.589 60.9653L32.8828 60.8258Z" fill="#26A58F"/>
<path d="M35.3391 61.245L35.4158 58.1973L36.135 58.2161L36.0583 61.2638L35.3391 61.2456V61.245ZM35.7035 60.0187L35.7176 59.4657L37.941 59.5226L37.9269 60.0757L35.7035 60.0187ZM37.4283 61.2986L37.505 58.2508L38.2242 58.269L38.1475 61.3168L37.4283 61.2986Z" fill="#26A58F"/>
<path d="M40.9011 61.0234L40.1995 58.0582L40.8994 57.8896L41.6011 60.8548L40.9011 61.0234ZM41.2074 60.9494L41.0799 60.4111L42.265 60.1252C42.4252 60.0865 42.5413 60.0255 42.6147 59.9429C42.6874 59.8598 42.7111 59.7624 42.6846 59.6513L42.6829 59.645C42.6564 59.5323 42.5915 59.4554 42.4895 59.4149C42.3874 59.3745 42.2559 59.3734 42.0958 59.4115L40.9107 59.6974L40.7832 59.1592L41.9683 58.8733C42.1132 58.8385 42.2181 58.7821 42.2836 58.7047C42.349 58.6272 42.3693 58.5355 42.3439 58.429C42.3214 58.3328 42.2638 58.2678 42.1725 58.2342C42.0811 58.2012 41.9626 58.2018 41.8182 58.2365L40.6332 58.5224L40.5057 57.9842L41.7139 57.6926C42.0749 57.6054 42.371 57.6083 42.6028 57.7C42.8341 57.7922 42.9802 57.966 43.0405 58.2217C43.0811 58.3943 43.0518 58.552 42.9514 58.695C42.851 58.838 42.6886 58.953 42.4646 59.0396C42.7179 59.0071 42.9266 59.0362 43.0913 59.1267C43.256 59.2173 43.3615 59.3608 43.4077 59.5579L43.4094 59.5642C43.4703 59.821 43.4179 60.0437 43.2515 60.2328C43.0856 60.4214 42.8211 60.5598 42.4584 60.6475L41.2068 60.9494H41.2074Z" fill="#26A58F"/>
<path d="M45.7349 59.5181C45.48 59.6354 45.2386 59.6958 45.0101 59.6992C44.7817 59.7026 44.5798 59.6514 44.4055 59.546C44.2306 59.4406 44.097 59.2857 44.0045 59.0812L43.6491 58.2958C43.5561 58.0896 43.5273 57.8863 43.5628 57.6841C43.5984 57.4825 43.6926 57.2956 43.8443 57.1231C43.996 56.9505 44.1996 56.8058 44.4546 56.6885C44.7095 56.5712 44.9509 56.5108 45.1794 56.5074C45.4078 56.5039 45.6091 56.5546 45.784 56.6594C45.9583 56.7642 46.092 56.9197 46.1856 57.1253L46.5409 57.9108C46.6334 58.1153 46.6622 58.3192 46.6267 58.5214C46.5911 58.7235 46.4975 58.9109 46.3452 59.0835C46.1935 59.2561 45.9899 59.4008 45.7349 59.5181ZM45.4986 58.9958C45.6768 58.9138 45.7998 58.8033 45.8669 58.6643C45.934 58.5259 45.9346 58.3835 45.8686 58.2371L45.5009 57.4249C45.4343 57.2774 45.3271 57.1846 45.1794 57.1453C45.0321 57.1065 44.8691 57.1282 44.6909 57.2108C44.5127 57.2934 44.3897 57.4033 44.322 57.5411C44.2543 57.679 44.2543 57.8219 44.3209 57.9694L44.6886 58.7816C44.7546 58.928 44.8618 59.0209 45.0096 59.0602C45.1574 59.0995 45.3204 59.0784 45.4986 58.9958Z" fill="#26A58F"/>
<path d="M46.0716 56.5796L45.7512 56.1308L48.022 54.4785L48.3424 54.9273L46.0716 56.5796ZM48.3599 57.9905L46.7394 55.7196L47.3232 55.2947L48.9437 57.5656L48.3599 57.9905Z" fill="#26A58F"/>
<path d="M19.4539 56.9841L21.631 56.8434L21.8691 57.1504L21.2142 59.2515L20.8104 58.7315L21.3011 57.3526L19.8577 57.5047L19.4539 56.9846V56.9841ZM20.0467 57.2751L20.3039 57.0718L21.3507 58.4205L21.0935 58.6239L20.0467 57.2751Z" fill="#26A58F"/>
<path d="M21.5486 59.5471L22.7584 58.2024L23.2085 58.6148L21.9987 59.9601L21.5486 59.5471ZM21.7488 59.7305L21.9682 59.4862L23.3676 60.7694L23.1482 61.0138L21.7488 59.7305Z" fill="#26A58F"/>
<path d="M24.9825 61.0565L25.9098 61.6876L25.7135 61.9821C25.6379 62.0954 25.5313 62.1666 25.3937 62.1962C25.2561 62.2258 25.0993 62.2144 24.9227 62.162C24.7462 62.1096 24.56 62.0168 24.3638 61.8835C24.1663 61.7491 24.0084 61.6096 23.89 61.4655C23.7715 61.3208 23.6982 61.1812 23.67 61.0457C23.6418 60.9101 23.6632 60.7894 23.7337 60.6834L24.0304 60.2386C24.106 60.1253 24.2126 60.0541 24.3497 60.025C24.4867 59.996 24.6435 60.0074 24.8201 60.0598C24.9966 60.1122 25.1827 60.205 25.379 60.3383C25.5409 60.4482 25.6757 60.5673 25.784 60.6954C25.8923 60.823 25.969 60.9517 26.0153 61.0804C26.0615 61.2092 26.0705 61.3293 26.0423 61.441L25.498 61.0707C25.5037 61.0035 25.4755 60.9289 25.4129 60.8475C25.3503 60.766 25.2735 60.6948 25.1827 60.6328C25.0468 60.5399 24.921 60.4904 24.806 60.4835C24.6909 60.4767 24.6069 60.5137 24.5527 60.5946L24.256 61.0394C24.2086 61.1106 24.2126 61.1966 24.2684 61.2974C24.3243 61.3982 24.4213 61.4956 24.56 61.5902C24.696 61.683 24.8206 61.7337 24.934 61.7428C25.0474 61.752 25.132 61.7149 25.1878 61.6312L25.2042 61.6061L24.7992 61.331L24.9819 61.0576L24.9825 61.0565Z" fill="#26A58F"/>
<path d="M26.8299 63.3166C26.6172 63.2118 26.4435 63.0956 26.3087 62.9674C26.1739 62.8393 26.0848 62.7083 26.0408 62.5744C25.9968 62.4406 26.0041 62.3135 26.0622 62.1928L26.2856 61.7303C26.3442 61.609 26.439 61.5247 26.5704 61.478C26.7018 61.4313 26.8586 61.4216 27.0419 61.4501C27.2247 61.4786 27.4227 61.5452 27.6353 61.65C27.848 61.7548 28.0217 61.871 28.1565 61.9991C28.2913 62.1273 28.381 62.2577 28.425 62.3916C28.469 62.5254 28.4616 62.6524 28.4035 62.7738L28.1802 63.2362C28.1221 63.357 28.0273 63.4407 27.8953 63.488C27.7639 63.5353 27.6065 63.545 27.4238 63.5165C27.241 63.488 27.0431 63.4214 26.8304 63.3166H26.8299ZM26.9788 63.009C27.1277 63.0825 27.2597 63.1149 27.3747 63.1069C27.4898 63.099 27.5682 63.0517 27.6099 62.9657L27.8412 62.4873C27.8829 62.4007 27.8716 62.309 27.8073 62.2127C27.7425 62.1165 27.6359 62.0316 27.487 61.9581C27.3381 61.8847 27.2061 61.8522 27.0916 61.8596C26.9765 61.8676 26.8981 61.9148 26.8564 62.0014L26.6251 62.4799C26.5834 62.5659 26.5947 62.6576 26.6595 62.7538C26.7244 62.8501 26.8304 62.9355 26.9793 63.009H26.9788Z" fill="#26A58F"/>
<path d="M28.4519 64.045L29.0238 62.3209L29.6003 62.5157L29.0284 64.2398L28.4519 64.045ZM28.911 63.4293L29.0148 63.1166L30.0792 63.4766C30.1688 63.5068 30.2467 63.5125 30.3132 63.4937C30.3798 63.4749 30.4232 63.435 30.4452 63.3746C30.4655 63.3137 30.4548 63.2556 30.4131 63.2003C30.3713 63.1451 30.3048 63.1018 30.214 63.071L29.1496 62.7111L29.2534 62.3984L30.364 62.7743C30.5338 62.8318 30.6748 62.903 30.7876 62.989C30.9004 63.0745 30.9788 63.1679 31.0234 63.2692C31.0679 63.3706 31.073 63.4726 31.0386 63.5762C31.0042 63.6799 30.9387 63.7579 30.8423 63.8115C30.7458 63.865 30.6274 63.8918 30.487 63.8918C30.3465 63.8918 30.1914 63.8627 30.0216 63.8058L28.911 63.4299V63.4293ZM30.0673 64.5918L29.5726 63.5939L30.2072 63.7483L30.7656 64.8282L30.0673 64.5918Z" fill="#26A58F"/>
<path d="M33.6061 63.5876L32.4436 64.4744L32.2964 65.1596L31.7025 65.0292L31.8497 64.344L31.1565 63.0499L31.7786 63.1866L32.2169 64.0831L32.984 63.4509L33.6061 63.5876Z" fill="#26A58F"/>
<path d="M33.4229 63.8866L33.4595 63.5591L35.8093 63.8291L35.7726 64.1571L33.4229 63.8872V63.8866ZM34.129 65.4643L34.3157 63.8068L34.9198 63.8763L34.7331 65.5338L34.129 65.4643Z" fill="#26A58F"/>
<path d="M35.9238 65.646L35.947 63.8291L36.555 63.8371L36.5319 65.654L35.9238 65.646ZM36.2149 64.9141L36.2188 64.5843L38.0976 64.6088L38.0937 64.9386L36.2149 64.9141ZM37.6893 65.6694L37.7124 63.8524L38.3204 63.8604L38.2973 65.6773L37.6893 65.6694Z" fill="#26A58F"/>
<path d="M40.3435 64.8805L40.8038 63.5887L41.5985 63.489L41.8202 65.2923L41.272 65.3612L41.0999 63.9612L41.1315 64.0381L40.6572 65.2347L40.1247 65.3014L39.3779 64.283L39.3869 64.1759L39.559 65.5759L39.0107 65.6448L38.7891 63.8416L39.5838 63.7419L40.343 64.8805H40.3435Z" fill="#26A58F"/>
<path d="M43.3184 64.9688L43.9535 62.8614L44.3218 62.744L46.0393 64.1024L45.4154 64.3012L44.3099 63.3523L43.9433 64.77L43.3189 64.9688H43.3184ZM43.7967 64.5108L43.6985 64.1964L45.3167 63.681L45.4149 63.9954L43.7967 64.5108Z" fill="#26A58F"/>
<path d="M46.4036 63.9402L45.6416 62.293L46.1921 62.0333L46.9541 63.6805L46.4036 63.9402ZM46.3162 63.1741L46.178 62.8751L47.195 62.3955C47.2807 62.3551 47.341 62.305 47.3766 62.2452C47.4116 62.1854 47.4166 62.1261 47.3912 62.0675C47.3642 62.0094 47.3168 61.9746 47.2491 61.9638C47.1809 61.9524 47.1036 61.9678 47.0167 62.0088L45.9998 62.4884L45.8616 62.1893L46.9225 61.6887C47.0844 61.6124 47.2356 61.5657 47.376 61.5492C47.5159 61.5326 47.6366 61.5457 47.7381 61.5879C47.8391 61.63 47.913 61.7007 47.9587 61.7998C48.0044 61.8989 48.0106 62.0008 47.9773 62.1068C47.944 62.2127 47.8763 62.3147 47.7742 62.4121C47.6727 62.5094 47.5407 62.5966 47.3783 62.6735L46.3173 63.1741H46.3162ZM47.9474 63.2117L46.9079 62.833L47.4725 62.5032L48.6146 62.8968L47.9474 63.2117Z" fill="#26A58F"/>
<path d="M49.068 62.6221L48.0911 61.0963L48.6015 60.7631L49.5784 62.289L49.068 62.6221ZM48.4526 61.2535L48.2755 60.9767L49.9056 59.9127L50.0827 60.1895L48.4526 61.2535ZM48.8559 61.8828L48.6788 61.606L50.1041 60.6759L50.2812 60.9527L48.8559 61.8834V61.8828ZM49.2524 62.502L49.0753 62.2252L50.7054 61.1612L50.8825 61.438L49.2524 62.502Z" fill="#26A58F"/>
<path d="M51.3519 61.0872L50.1499 59.7368L50.7027 59.235L52.5166 59.4605L52.4986 59.5209L51.5555 58.4615L51.9881 58.0691L53.1901 59.4195L52.6339 59.9242L50.8375 59.7117L50.8555 59.6519L51.7845 60.6959L51.3519 61.0884V61.0872Z" fill="#26A58F"/>
<path d="M53.4913 59.1273L52.8145 57.033L53.0497 56.7238L55.228 56.8411L54.8298 57.3657L53.3847 57.229L53.8901 58.6028L53.4919 59.1273H53.4913ZM53.6233 58.4752L53.3638 58.2741L54.3966 56.9146L54.656 57.1156L53.6233 58.4752Z" fill="#26A58F"/>
</g>
<defs>
<clipPath id="clip0_62_150">
<rect width="75" height="75" fill="white"/>
</clipPath>
</defs>
</svg>
